<svg width="62" height="62" xmlns="http://www.w3.org/2000/svg">
 <!-- Created with Method Draw - http://github.com/duopixel/Method-Draw/ -->
 <g>
  <title>background</title>
  <rect fill="#fff" id="canvas_background" height="64" width="64" y="-1" x="-1"/>
 </g>
 <g>
  <title>Layer 1</title>
  <g clip-path="url(#cp1)" id="logo copy">
   <path d="m16.689995,7.5l0,-1.39c0,-1.2 -0.08,-1.77 -0.33,-2.45l0.19,-0.19c1.69,0.6 2.69,0.98 3.24,1.25c1.09,-0.49 2.18,-1.06 3.34,-1.77c0.6,-0.38 0.9,-0.63 1.22,-0.95l0.3,0c2.64,1.88 2.96,2.15 2.96,2.56c0,0.33 -0.22,0.46 -0.76,0.46c-0.19,0 -0.44,-0.03 -0.73,-0.05c-1.74,0.27 -3.67,0.46 -5.82,0.6c-0.11,0.11 -0.3,0.24 -0.63,0.38l0,5.41l3.62,0c1.5,-2.07 1.79,-2.28 2.01,-2.28c0.27,0 0.57,0.14 1.58,1.03c1.03,0.9 1.25,1.14 1.25,1.36c0,0.3 -0.16,0.38 -0.63,0.38l-2.01,0c-0.05,0.33 -0.22,0.49 -0.73,0.71l0,4.21l0.22,9.41c0,0.92 -0.71,1.41 -2.53,1.41c-0.9,0 -1.01,-0.16 -1.01,-0.98l0.22,-9.68l0,-5.09l-1.99,0c-0.03,9.27 -2.47,13.27 -7.1,15.66l-0.16,-0.19c0.68,-0.6 1.33,-1.31 1.88,-2.23c-0.3,0.24 -0.68,0.38 -1.06,0.38c-0.76,0 -1.14,-0.44 -1.44,-1.47c-0.41,-1.39 -1.11,-2.34 -2.26,-3.07l0.08,-0.24c3.7,0.08 5.33,1.6 5.33,2.99l0,0.14c0.52,-1.17 0.84,-2.42 1.09,-3.7l-9.03,0c-1.47,0 -3.24,0.05 -4.76,0.22l-0.24,-0.92c1.03,0.14 2.09,0.19 3.1,0.19l0,-11.31c-0.79,0.03 -1.58,0.08 -2.31,0.16l-0.24,-0.92c0.84,0.11 1.71,0.16 2.56,0.19l0,-3.02c0,-1.14 -0.05,-1.77 -0.33,-2.37l0.19,-0.19c3.15,0.41 4.02,0.73 4.02,1.17c0,0.35 -0.24,0.63 -1.09,0.82l0,3.62l2.58,0l0,-3.05c0,-1.14 -0.05,-1.77 -0.33,-2.37l0.19,-0.19c3.07,0.41 4.11,0.71 4.11,1.14c0,0.35 -0.14,0.57 -1.09,0.87l0,3.51c1.14,-1.74 1.28,-1.88 1.47,-1.88c0.22,0 0.35,0.08 1.25,1.03c0.3,0.33 0.49,0.52 0.6,0.68l0.01,0.01zm0,4.41l0,-3.7c-0.11,0.03 -0.24,0.03 -0.44,0.03l-2.88,0l0,11.18c1.06,-1.77 1.14,-1.85 1.36,-1.85c0.22,0 0.33,0.05 1.17,1.06c0.14,0.16 0.24,0.27 0.33,0.41c0.3,-1.96 0.46,-4.3 0.46,-7.12l0,-0.01zm-6.2,0.27l-2.58,0l0,3.48l2.58,0l0,-3.48zm-2.58,-0.49l2.58,0l0,-3.45l-2.58,0l0,3.45zm2.58,4.46l-2.58,0l0,3.48l2.58,0l0,-3.48zm-8.34,10.74l-0.08,-0.24c1.66,-1.55 2.66,-2.94 3.54,-4.62c0.27,-0.54 0.49,-1.01 0.6,-1.5l0.27,-0.14c2.53,1.36 3.37,1.96 3.37,2.45c0,0.38 -0.19,0.46 -1.22,0.44c-1.63,1.47 -3.67,2.72 -6.47,3.62l-0.01,-0.01zm29.96,0.6l-0.03,-0.27c4.41,-1.47 7.91,-3.7 10.55,-6.61c-2.53,-3.7 -3.18,-8.19 -3.45,-12.54c-2.34,0 -5.17,0.05 -6.55,0.22l-0.24,-0.92c1.58,0.16 4.54,0.22 6.91,0.22l3.56,0l0,-3.18c0,-0.98 -0.05,-1.63 -0.33,-2.2l0.19,-0.19c3.56,0.46 4.6,0.71 4.6,1.22c0,0.3 -0.19,0.49 -1.09,0.73l0,3.62l4.92,0c1.79,-2.34 2.2,-2.75 2.45,-2.75c0.33,0 0.57,0.14 1.82,1.14c1.41,1.11 1.58,1.39 1.58,1.66c0,0.35 -0.16,0.44 -0.68,0.44l-5.79,0c2.04,0.9 2.37,1.2 2.37,1.58c0,0.33 -0.14,0.57 -1.31,0.73c-1.14,3.81 -2.66,7.1 -4.76,9.79c3.18,2.12 6.99,2.94 10.61,3.18l0,0.3c-1.17,0.54 -2.2,1.79 -2.69,2.96c-0.16,0.38 -0.27,0.63 -0.68,0.63c-0.14,0 -0.3,-0.03 -0.49,-0.08c-3.32,-0.79 -6.53,-2.18 -9.03,-4.57c-3.05,2.66 -7.04,4.38 -12.43,4.89l-0.01,0zm16.05,-19.42l-8.51,0c0.22,0.95 0.38,1.88 0.65,2.77c0.82,2.75 2.18,5.33 4.16,7.4c1.66,-2.47 2.83,-5.33 3.48,-8.51c0.08,-0.46 0.19,-1.14 0.22,-1.66zm-34.65,39.62l0.08,4.41c0.03,0.95 -0.95,1.28 -2.28,1.28c-0.76,0 -0.92,-0.11 -0.92,-0.76l0,-0.44l-3.54,0l0,0.35c0,0.44 -0.22,0.73 -0.63,0.92c2.31,0.92 2.86,1.22 2.86,1.66c0,0.38 -0.35,0.54 -1.22,0.68c-1.31,1.66 -3.05,3.21 -5.55,4.43l-0.19,-0.19c1.5,-1.88 2.26,-3.26 2.91,-4.92c0.24,-0.6 0.3,-1.03 0.3,-1.41c-0.22,0.03 -0.46,0.05 -0.73,0.05c-0.71,0 -0.82,-0.16 -0.82,-0.82l0.19,-10.71l0,-4.3c0,-1.11 -0.11,-1.79 -0.3,-2.28l0.22,-0.16c2.12,0.63 3.02,0.95 3.32,1.22l2.94,0c1.03,-1.28 1.31,-1.44 1.52,-1.44c0.19,0 0.49,0.14 1.69,1.06c0.9,0.68 1.09,0.95 1.09,1.22c0,0.33 -0.24,0.57 -1.03,0.92l0,3.56l0.11,5.63c1.71,-3.13 2.94,-7.12 3.51,-11.53c0.03,-0.33 0.08,-0.6 0.08,-0.87c0,-0.19 -0.03,-0.35 -0.05,-0.57l0.22,-0.16c3.37,0.79 4.51,1.14 4.51,1.63c0,0.27 -0.16,0.49 -1.11,0.73c-0.65,1.9 -1.44,3.67 -2.31,5.25l4.62,0c1.36,-1.99 1.69,-2.39 1.93,-2.39c0.27,0 0.71,0.24 1.69,1.03c1.14,0.9 1.31,1.14 1.31,1.47c0,0.24 -0.16,0.38 -0.65,0.38l-3.75,0c2.07,0.46 2.61,0.73 2.61,1.03c0,0.35 -0.22,0.46 -1.11,0.65c-0.65,3.64 -1.63,6.55 -2.96,8.81c1.74,1.6 3.86,2.66 6.2,3.37l0,0.33c-1.06,0.44 -2.15,1.36 -2.66,2.34c-0.3,0.57 -0.46,0.71 -0.65,0.71c-0.19,0 -0.41,-0.08 -0.84,-0.38c-1.55,-1.03 -2.86,-2.28 -3.92,-3.83c-2.26,2.42 -5.22,3.78 -8.92,4.43l-0.16,-0.24c3.24,-1.22 5.9,-3.48 7.78,-6.53c-1.28,-2.8 -1.71,-5.93 -1.88,-9c-0.98,1.39 -2.07,2.58 -3.21,3.56l-0.3,-0.18zm8.11,-5.05l-3.56,0c-0.22,0.35 -0.44,0.73 -0.68,1.09c0.44,2.5 1.28,5 2.69,7.12c0.84,-2.04 1.39,-4.35 1.55,-6.91c0.03,-0.41 0.03,-0.92 0,-1.31l0,0.01zm-11.23,9.05l0,-4.57l-3.54,0l0,4.57l3.54,0zm0,-5.06l0,-4.62l-3.54,0l0,4.62l3.54,0zm0,-5.11l0,-4.32l-3.1,0c-0.08,0.11 -0.22,0.19 -0.44,0.27l0,4.05l3.54,0zm-1.8,11.86l0.14,-0.19c3.32,0.49 5.06,1.9 5.06,3.56c0,1.14 -0.71,1.77 -1.6,1.77c-0.79,0 -1.28,-0.46 -1.41,-1.25c-0.27,-1.5 -1.03,-3.02 -2.18,-3.89l-0.01,0zm39.97,0.41l0,0.11c0,0.27 -0.05,0.49 -0.19,0.65c2.34,1.44 2.77,1.9 2.77,2.28c0,0.41 -0.46,0.57 -1.31,0.49c-2.56,1.58 -5.3,2.56 -8.78,2.91l-0.05,-0.24c2.47,-1.11 4.11,-2.34 5.44,-3.92c0.35,-0.41 0.57,-0.71 0.76,-0.95c-0.24,0.03 -0.49,0.05 -0.79,0.05c-0.9,0 -1.03,-0.11 -1.03,-0.92l0.22,-7.91l0,-4.08c0,-1.25 -0.11,-1.82 -0.3,-2.26l0.19,-0.19c1.36,0.44 2.26,0.71 2.8,0.92c0.24,-1.17 0.44,-2.39 0.54,-3.59c-1.28,0 -2.56,0.03 -3.83,0.14c-0.03,0.33 -0.35,0.46 -1.06,0.49c-1.28,1.28 -2.58,2.34 -4.11,3.24l0,0.24l1.44,0c1.31,-1.77 1.5,-1.99 1.69,-1.99c0.24,0 0.49,0.19 1.36,0.92c0.84,0.71 1.11,0.98 1.11,1.2c0,0.27 -0.14,0.35 -0.54,0.35l-5.06,0l0.03,0.98c2.99,0.16 4.73,1.22 4.73,2.88c0,0.9 -0.6,1.58 -1.5,1.58c-0.79,0 -1.28,-0.46 -1.44,-1.31c-0.22,-1.25 -0.87,-2.2 -1.77,-2.75l0.08,3.86c0,1.06 -0.6,1.41 -2.15,1.41c-0.73,0 -0.9,-0.08 -0.9,-0.95l0.11,-2.37c-1.41,1.71 -3.21,3.02 -5.44,4l-0.14,-0.19c2.01,-1.79 3.62,-4.41 4.54,-7.15c-1.31,0 -2.66,0.05 -4.08,0.22l-0.24,-0.92c1.69,0.16 3.21,0.22 4.57,0.22l0.82,0l0,-4.57c0,-1.25 -0.11,-1.66 -0.3,-2.04l0.19,-0.19c3.24,0.41 3.86,0.65 3.86,1.09c0,0.24 -0.19,0.46 -0.98,0.71l0,4.16c0.57,-1.17 1.11,-2.42 1.41,-3.43c0.24,-0.76 0.3,-1.14 0.3,-1.52l0.22,-0.14c1.14,0.52 1.9,0.87 2.39,1.14c1.63,0.14 3.13,0.19 4.68,0.19l4.11,0c1.39,-2.01 1.77,-2.37 1.96,-2.37c0.27,0 0.65,0.22 1.52,0.98c1.17,1.01 1.36,1.25 1.36,1.5c0,0.3 -0.16,0.38 -0.63,0.38l-3.75,0c-0.08,0.44 -0.3,0.57 -0.92,0.71c-0.92,1.31 -1.69,2.28 -2.69,3.26l2.69,0c1.06,-1.31 1.36,-1.58 1.63,-1.58c0.27,0 0.65,0.22 1.69,1.01c1.14,0.87 1.36,1.2 1.36,1.52c0,0.33 -0.33,0.57 -1.03,0.79l0,3.43l0.22,7.02c0,1.22 -0.54,1.63 -2.45,1.63c2.31,0.65 3.45,1.93 3.45,3.32c0,1.22 -0.73,1.9 -1.85,1.9c-0.84,0 -1.44,-0.46 -1.71,-1.44c-0.49,-1.88 -1.66,-3.37 -3.21,-4l0.05,-0.24c0.9,0.03 1.69,0.11 2.42,0.24c-0.08,-0.11 -0.11,-0.3 -0.11,-0.57l0,-0.35l-4.37,0.01zm0,-8.73l4.38,0l0,-3.45l-3.78,0c-0.08,0.14 -0.24,0.27 -0.6,0.41l0,3.04zm0,0.49l0,3.54l4.38,0l0,-3.54l-4.38,0zm0,4.02l0,3.73l4.38,0l0,-3.73l-4.38,0zm-16.8,10.66l-0.11,-0.24c3.15,-1.63 4.46,-4.41 4.98,-7.18c-1.6,0.03 -3.21,0.08 -4.57,0.22l-0.24,-0.92c1.47,0.14 3.18,0.19 4.92,0.22c0.03,-0.33 0.08,-0.63 0.11,-0.95c0.08,-0.71 0.11,-1.22 0.11,-1.6c0,-0.49 -0.05,-0.76 -0.14,-1.06l0.19,-0.19c3.4,0.54 4.19,0.87 4.19,1.31c0,0.35 -0.27,0.54 -1.09,0.76c-0.05,0.6 -0.16,1.2 -0.27,1.74l1.14,0c1.22,-1.74 1.58,-2.15 1.82,-2.15c0.24,0 0.49,0.14 1.22,0.82c1.06,1.01 1.22,1.17 1.22,1.41c0,0.33 -0.16,0.41 -0.63,0.41l-4.89,0c-0.11,0.41 -0.22,0.82 -0.35,1.22c2.86,0.19 4.49,1.31 4.49,2.94c0,1.03 -0.76,1.71 -1.63,1.71c-0.82,0 -1.33,-0.44 -1.5,-1.25c-0.3,-1.44 -0.76,-2.37 -1.55,-2.94c-1.2,2.96 -3.54,4.92 -7.42,5.74l0,-0.02zm0.57,-24.12l0.14,-0.22c2.88,0.33 4.19,1.6 4.19,3.15c0,0.98 -0.63,1.66 -1.58,1.66c-0.76,0 -1.28,-0.52 -1.36,-1.47c-0.14,-1.63 -0.57,-2.58 -1.39,-3.13l0,0.01z" class="shp0" id="svg_1"/>
  </g>
 </g>
</svg>